<?xml version="1.0" encoding="UTF-8" standalone="no"?>
<svg
   xmlns:dc="http://purl.org/dc/elements/1.1/"
   xmlns:cc="http://creativecommons.org/ns#"
   xmlns:rdf="http://www.w3.org/1999/02/22-rdf-syntax-ns#"
   xmlns:svg="http://www.w3.org/2000/svg"
   xmlns="http://www.w3.org/2000/svg"
   xmlns:sodipodi="http://sodipodi.sourceforge.net/DTD/sodipodi-0.dtd"
   xmlns:inkscape="http://www.inkscape.org/namespaces/inkscape"
   width="170.7484mm"
   height="170.7484mm"
   viewBox="0 0 170.7484 170.7484"
   version="1.1"
   id="svg1005"
   inkscape:version="1.0.2 (e86c870879, 2021-01-15, custom)"
   sodipodi:docname="logo.svg">
  <defs
     id="defs999" />
  <sodipodi:namedview
     id="base"
     pagecolor="#ffffff"
     bordercolor="#666666"
     borderopacity="1.0"
     inkscape:pageopacity="0.0"
     inkscape:pageshadow="2"
     inkscape:zoom="0.7"
     inkscape:cx="560.80203"
     inkscape:cy="277.86078"
     inkscape:document-units="mm"
     inkscape:current-layer="layer1"
     inkscape:document-rotation="0"
     showgrid="false"
     fit-margin-top="0"
     fit-margin-left="0"
     fit-margin-right="0"
     fit-margin-bottom="0"
     inkscape:window-width="1600"
     inkscape:window-height="837"
     inkscape:window-x="-8"
     inkscape:window-y="-8"
     inkscape:window-maximized="1" />
  <metadata
     id="metadata1002">
    <rdf:RDF>
      <cc:Work
         rdf:about="">
        <dc:format>image/svg+xml</dc:format>
        <dc:type
           rdf:resource="http://purl.org/dc/dcmitype/StillImage" />
        <dc:title />
      </cc:Work>
    </rdf:RDF>
  </metadata>
  <g
     inkscape:label="Katman 1"
     inkscape:groupmode="layer"
     id="layer1"
     transform="translate(-19.39545,-70.887645)">
    <circle
       style="fill:#ffffff;stroke-width:3.3585;stroke-linecap:square;stroke-linejoin:round;paint-order:markers stroke fill"
       id="path76"
       cx="104.76965"
       cy="156.26184"
       r="85.374199" />
    <g
       id="g2322"
       inkscape:export-filename="C:\Users\deneme\Desktop\LiseJam\lisejam-logo.png"
       inkscape:export-xdpi="131.75578"
       inkscape:export-ydpi="131.75578"
       transform="matrix(0.60227112,0,0,0.60227112,214.26208,64.486066)">
      <path
         id="rect2133"
         style="fill:#004040;fill-opacity:1;stroke:none;stroke-width:0;stroke-miterlimit:4;stroke-dasharray:none;stroke-opacity:1;paint-order:markers stroke fill"
         d="m -256.83404,125.82157 h 150.06959 c 11.831029,0 21.355652,9.52462 21.355652,21.35566 0,11.83103 -9.524623,21.35565 -21.355652,21.35565 h -150.06959 c -11.83103,0 -21.35566,-9.52462 -21.35566,-21.35565 0,-11.83104 9.52463,-21.35566 21.35566,-21.35566 z" />
      <g
         id="g2166"
         transform="translate(-14.733762,25.363653)">
        <path
           d="m -222.22932,52.807236 h 10.02979 V 108.2099 h -10.02979 z"
           style="font-style:normal;font-variant:normal;font-weight:normal;font-stretch:normal;font-size:75.2418px;line-height:0;font-family:'Century Gothic';-inkscape-font-specification:'Century Gothic';letter-spacing:0px;stroke:#ffffff;stroke-width:9;stroke-linecap:square;stroke-miterlimit:4;stroke-dasharray:none;stroke-opacity:1;paint-order:markers stroke fill"
           id="path2139" />
        <path
           d="m -199.19387,51.77854 q 2.64522,0 4.51892,1.910436 1.91044,1.910436 1.91044,4.629134 0,2.681959 -1.8737,4.592395 -1.8737,1.873697 -4.48218,1.873697 -2.68196,0 -4.59239,-1.910436 -1.8737,-1.947176 -1.8737,-4.702613 0,-2.645219 1.8737,-4.518916 1.87369,-1.873697 4.51891,-1.873697 z m -5.03326,16.459143 h 10.06653 V 108.2099 h -10.06653 z"
           style="font-style:normal;font-variant:normal;font-weight:normal;font-stretch:normal;font-size:75.2418px;line-height:0;font-family:'Century Gothic';-inkscape-font-specification:'Century Gothic';letter-spacing:0px;stroke:#ffffff;stroke-width:9;stroke-linecap:square;stroke-miterlimit:4;stroke-dasharray:none;stroke-opacity:1;paint-order:markers stroke fill"
           id="path2141" />
        <path
           d="m -160.61775,73.822035 -6.20892,6.208918 q -3.78413,-3.747394 -6.87022,-3.747394 -1.69,0 -2.64522,0.734783 -0.95522,0.698044 -0.95522,1.76348 0,0.808261 0.58783,1.506305 0.62456,0.661305 3.01261,1.836958 l 3.67391,1.836958 q 5.80479,2.865658 7.9724,5.841528 2.16761,2.97587 2.16761,6.980445 0,5.327184 -3.93109,8.890884 -3.89435,3.56369 -10.47066,3.56369 -8.74392,0 -13.96088,-6.83348 l 6.17218,-6.723274 q 1.76348,2.057401 4.11479,3.343271 2.38804,1.249133 4.225,1.249133 1.98391,0 3.19631,-0.955223 1.21239,-0.95522 1.21239,-2.204351 0,-2.314575 -4.37196,-4.518925 l -3.38,-1.69 q -9.69914,-4.8863 -9.69914,-12.234137 0,-4.739351 3.63718,-8.082615 3.67391,-3.380003 9.36848,-3.380003 3.89435,0 7.31109,1.726741 3.45348,1.690001 5.84153,4.886308 z"
           style="font-style:normal;font-variant:normal;font-weight:normal;font-stretch:normal;font-size:75.2418px;line-height:0;font-family:'Century Gothic';-inkscape-font-specification:'Century Gothic';letter-spacing:0px;stroke:#ffffff;stroke-width:9;stroke-linecap:square;stroke-miterlimit:4;stroke-dasharray:none;stroke-opacity:1;paint-order:markers stroke fill"
           id="path2143" />
        <path
           d="m -111.93836,91.126181 h -32.22024 q 0.69804,4.26174 3.71065,6.796746 3.04935,2.498273 7.75196,2.498273 5.6211,0 9.6624,-3.931094 l 8.45001,3.967824 q -3.15957,4.48218 -7.56827,6.64979 -4.4087,2.13087 -10.47066,2.13087 -9.40522,0 -15.32023,-5.915 -5.915,-5.951743 -5.915,-14.879369 0,-9.148051 5.87826,-15.173273 5.91501,-6.061962 14.80589,-6.061962 9.44196,0 15.35696,6.061962 5.91501,6.025222 5.91501,15.944793 z m -10.06653,-7.898921 q -0.99196,-3.343264 -3.93109,-5.437396 -2.90239,-2.094132 -6.76001,-2.094132 -4.18826,0 -7.34783,2.351306 -1.98391,1.469567 -3.67391,5.180222 z"
           style="font-style:normal;font-variant:normal;font-weight:normal;font-stretch:normal;font-size:75.2418px;line-height:0;font-family:'Century Gothic';-inkscape-font-specification:'Century Gothic';letter-spacing:0px;stroke:#ffffff;stroke-width:9;stroke-linecap:square;stroke-miterlimit:4;stroke-dasharray:none;stroke-opacity:1;paint-order:markers stroke fill"
           id="path2145" />
      </g>
      <g
         id="g2273"
         transform="translate(-17.10525,-5.3722524)">
        <path
           d="m -227.93511,232.99571 q -4.55825,0 -7.75872,-1.93968 -3.10349,-1.93968 -5.04317,-4.94619 -1.8427,-2.90952 -2.71556,-6.59492 -0.77587,-3.68539 -0.77587,-7.17682 0,-3.00651 0.77587,-5.62508 0.87286,-2.71555 1.55175,-3.68539 0.48492,-0.67889 1.26079,-1.45476 0.77587,-0.77587 2.23063,-1.06683 1.55175,-0.29095 3.10349,-0.67889 1.35778,-0.29095 2.61857,-0.48492 1.35778,-0.19396 2.42461,-0.38793 -1.45477,1.64873 -2.42461,3.78238 -0.96984,2.13365 -1.45476,4.46126 -0.48492,2.23064 -0.67889,4.36429 -0.19396,2.13365 0,3.87936 0.29096,4.84921 2.81254,7.9527 2.61857,3.0065 5.72206,3.0065 2.42461,0 4.17032,-1.45476 1.74571,-1.35778 2.90952,-3.58841 1.16381,-2.23063 1.8427,-5.14016 0.67889,-2.90952 0.96984,-5.81904 0.29095,-3.00651 0.38794,-5.81905 0.097,-2.90952 0.097,-5.04317 0,-3.58841 -0.38794,-7.85571 -0.29095,-4.2673 -0.77587,-8.5346 -0.48492,-4.2673 -1.06682,-8.04968 -0.48492,-3.87936 -0.87286,-6.49793 -3.87936,0.5819 -6.59492,1.45476 -2.71555,0.87286 -5.04317,1.45476 -1.06683,0.19397 -1.35778,-0.38793 -1.64873,-2.71556 -1.74571,-4.84921 -0.097,-2.13365 0.19397,-3.20047 0.097,-0.48492 1.06682,-0.87286 3.49143,-1.16381 9.01952,-2.23063 5.52809,-1.06683 12.51095,-1.35778 1.93968,0 3.68539,0.097 1.55175,0.097 3.20048,0.38794 1.74571,0.29095 3.10349,0.87286 0.5819,0.48492 0.87286,1.26079 0.29095,0.67889 0.48492,1.45476 0.19396,0.96984 0.19396,1.93968 0,1.06683 -0.19396,2.13365 -0.19397,0.96984 -0.48492,2.13365 -0.29096,1.16381 -0.77588,2.32762 -0.48492,-0.5819 -1.06682,-1.06682 -0.48492,-0.58191 -1.45476,-0.96985 -0.96984,-0.48492 -2.52159,-0.67888 -1.55174,-0.29096 -4.17032,-0.38794 0.87286,5.43111 1.45477,9.50444 0.67888,4.07333 1.06682,7.95269 0.48492,3.87937 0.67889,8.14667 0.29095,4.2673 0.29095,10.08634 0,7.9527 -1.74571,13.57777 -1.74572,5.5281 -4.75222,9.01952 -2.90952,3.49143 -6.78889,5.04317 -3.87936,1.55175 -8.04968,1.55175 z"
           style="font-style:normal;font-variant:normal;font-weight:normal;font-stretch:normal;font-size:99.3117px;line-height:0;font-family:Rancho;-inkscape-font-specification:Rancho;letter-spacing:-1.44641px;fill:#008080;stroke:#ffffff;stroke-width:9;stroke-linecap:square;stroke-linejoin:round;stroke-miterlimit:4;stroke-dasharray:none;stroke-opacity:1;paint-order:markers stroke fill"
           id="path2174" />
        <path
           d="m -147.81791,228.53444 q -0.96984,1.35778 -2.23063,2.03667 -1.26079,0.77587 -2.4246,1.06682 -1.35778,0.38794 -2.90952,0.29096 -0.58191,0 -1.2608,-0.29096 -0.5819,-0.19397 -1.26079,-0.5819 -0.67889,-0.29095 -1.16381,-0.96984 -1.35778,-4.84921 -2.4246,-9.40746 -1.06683,-4.55825 -1.8427,-8.14666 -0.96984,-4.17032 -1.64873,-7.85571 -2.61857,-0.097 -7.85571,0 -5.14016,0 -11.15317,0.5819 -1.8427,5.81905 -2.90952,9.7954 -1.06683,3.97634 -1.55175,6.59491 -0.48492,2.61857 -0.38793,4.2673 0.097,1.74572 0.5819,3.00651 -1.35778,1.35778 -2.71555,1.93968 -1.2608,0.67889 -2.32762,0.87286 -1.26079,0.29095 -2.4246,0.19397 -1.55175,-0.19397 -2.52159,-0.58191 -0.96984,-0.29095 -1.45476,-1.06682 -0.38794,-0.67889 -0.29095,-2.03667 0.19397,-1.35778 0.77587,-3.58841 0.58191,-1.93968 2.13365,-6.88587 1.64873,-5.04317 3.6854,-11.44412 -3.6854,0.29095 -5.72207,-0.38794 -1.93968,-0.67889 -2.71555,-3.68539 1.55175,-0.48492 3.29746,-0.87286 1.8427,-0.48492 3.49143,-0.87286 1.84269,-0.38793 3.78238,-0.67889 2.03666,-6.40094 4.17031,-12.60793 2.13365,-6.20698 3.97635,-11.15317 l 5.62507,-15.03253 q 0.19397,-0.5819 2.03667,-1.26079 1.8427,-0.67889 4.07333,-1.06683 2.23064,-0.48492 4.2673,-0.48492 2.03667,0 2.61857,0.87286 0.29095,2.03667 0.77587,5.04317 0.58191,3.00651 1.06683,5.81905 0.5819,3.29746 1.35778,6.78888 0.87285,4.84921 1.84269,10.76524 1.06683,5.91603 2.61857,12.60793 1.55175,6.6919 3.6854,13.86872 2.13365,7.17682 5.33412,14.54761 z m -26.96157,-30.35601 q 3.10349,-0.097 5.14016,-0.097 2.03666,0 3.49142,0.097 l -0.29095,-1.45477 q -0.5819,-3.58841 -1.26079,-7.66174 -0.58191,-4.07333 -1.2608,-8.04968 -0.5819,-3.97634 -1.16381,-7.56476 -0.5819,-3.58841 -0.96984,-6.30396 -0.96984,2.52159 -2.23063,6.11 -1.26079,3.49142 -2.71555,7.66174 -1.45477,4.17031 -3.00651,8.72857 -1.45476,4.55825 -2.90952,9.01952 1.74571,-0.19397 3.49142,-0.29096 1.74572,-0.097 3.6854,-0.19396 z"
           style="font-style:normal;font-variant:normal;font-weight:normal;font-stretch:normal;font-size:99.3117px;line-height:0;font-family:Rancho;-inkscape-font-specification:Rancho;letter-spacing:-1.44641px;fill:#008080;stroke:#ffffff;stroke-width:9;stroke-linecap:square;stroke-linejoin:round;stroke-miterlimit:4;stroke-dasharray:none;stroke-opacity:1;paint-order:markers stroke fill"
           id="path2176" />
        <path
           d="m -91.267833,232.02587 q -2.909522,-0.097 -3.976347,-1.8427 -1.066825,-1.64873 -1.260793,-4.65523 -0.193969,-3.00651 0.193968,-7.07984 0.387936,-4.17032 0.387936,-9.01952 0.09698,-9.60143 0.678889,-17.45714 0.678888,-7.95269 0.387936,-15.42046 0,-0.58191 0,-1.06683 0,-0.48492 -0.09698,-0.96984 -0.48492,1.64873 -1.163809,3.78238 -0.581905,2.03666 -1.454761,4.55825 -1.745712,5.43111 -3.491436,11.15317 -1.64873,5.72206 -3.29746,11.15317 -1.55174,5.33412 -3.0065,9.98936 -1.35778,4.55825 -2.42461,7.66174 -1.06682,3.10349 -2.13365,4.55825 -0.96984,1.55175 -2.03666,2.13365 -0.96984,0.58191 -2.03667,0.48492 -0.96984,-0.097 -1.93968,-0.19396 -0.38793,-3.29746 -1.45476,-7.75873 -1.06682,-4.46127 -2.23063,-8.5346 -1.35778,-4.75222 -3.00651,-9.69841 -2.23063,-8.5346 -4.65524,-15.61444 -2.4246,-7.07983 -3.78237,-11.63808 -0.58191,4.94618 -0.87286,11.34713 -0.29095,6.40095 -0.38794,12.8019 -0.097,6.40095 0.097,12.12301 0.19396,5.62508 0.5819,9.11651 0.097,1.45476 0.38794,2.90952 0.19397,1.26079 0.48492,2.52158 0.38793,1.35778 0.87285,2.42461 -0.48492,0.38793 -1.1638,0.67888 -0.67889,0.29096 -1.45477,0.48492 -0.87285,0.29096 -1.84269,0.48492 -3.78238,0.77588 -5.5281,-0.19396 -1.64873,-0.96984 -2.03666,-3.87937 -0.19397,-1.45476 -0.29095,-5.4311 -0.097,-3.97635 -0.097,-9.11651 0.097,-5.23714 0.29095,-10.9592 0.19397,-5.72206 0.58191,-10.66825 0.38793,-3.97635 0.77587,-8.63158 0.38794,-4.07333 0.77587,-9.40746 0.38794,-5.33412 0.87286,-11.5411 0.29095,-0.58191 0.96984,-0.96984 0.67889,-0.48492 1.45476,-0.77588 0.87286,-0.38793 1.93968,-0.5819 1.64873,-0.29095 2.90953,-0.48492 1.06682,-0.19397 1.93968,-0.29095 0.96984,-0.097 0.77587,0 1.26079,2.61857 1.93968,4.36428 0.67889,1.64873 1.35778,3.97635 0.77587,2.32761 1.8427,6.10999 1.16381,3.78238 3.29746,10.57127 2.90952,9.40745 4.94618,16.39031 2.13365,6.98285 3.20048,10.66825 0.67889,-1.2608 1.35778,-2.71556 0.67888,-1.55174 1.35777,-3.68539 0.77588,-2.13365 1.55175,-4.94619 0.87285,-2.90952 1.93968,-6.88587 1.35778,-4.36428 2.81254,-9.40746 1.16381,-4.2673 2.52159,-9.6984 1.45476,-5.5281 2.71555,-11.44413 3.103496,-1.26079 5.043178,-1.84269 1.939681,-0.67889 3.006506,-1.06683 1.260793,-0.38793 1.842698,-0.48492 0.581904,0.097 1.163809,0.58191 0.48492,0.48492 1.163809,1.35777 0.678888,0.87286 1.454761,2.61857 0,1.35778 0,4.36429 0,3.0065 0,6.98285 0,3.87936 -0.09698,8.43762 -0.09698,4.55825 -0.193968,9.21348 0,4.55826 -0.09698,8.92254 0,4.36428 -0.09698,7.75873 -0.193969,5.14015 -0.09699,8.72856 0.193969,3.58841 0.581905,6.01302 0.48492,2.32761 1.163809,3.78238 0.775873,1.45476 1.842697,2.32761 -0.290952,0.19397 -1.163808,0.58191 -0.775873,0.48492 -1.939682,0.87285 -1.163809,0.48492 -2.424602,0.77588 -1.260793,0.29095 -2.230634,0.29095 z"
           style="font-style:normal;font-variant:normal;font-weight:normal;font-stretch:normal;font-size:99.3117px;line-height:0;font-family:Rancho;-inkscape-font-specification:Rancho;letter-spacing:-1.44641px;fill:#008080;stroke:#ffffff;stroke-width:9;stroke-linecap:square;stroke-linejoin:round;stroke-miterlimit:4;stroke-dasharray:none;stroke-opacity:1;paint-order:markers stroke fill"
           id="path2178" />
      </g>
    </g>
  </g>
</svg>
