<?xml version="1.0" encoding="UTF-8" standalone="no"?>
<svg
   xmlns:dc="http://purl.org/dc/elements/1.1/"
   xmlns:cc="http://creativecommons.org/ns#"
   xmlns:rdf="http://www.w3.org/1999/02/22-rdf-syntax-ns#"
   xmlns:svg="http://www.w3.org/2000/svg"
   xmlns="http://www.w3.org/2000/svg"
   xmlns:sodipodi="http://sodipodi.sourceforge.net/DTD/sodipodi-0.dtd"
   xmlns:inkscape="http://www.inkscape.org/namespaces/inkscape"
   id="wave"
   viewBox="0 0 1440 250"
   version="1.1"
   sodipodi:docname="wave.svg"
   inkscape:version="1.0.2 (e86c870879, 2021-01-15, custom)"
   style="transform:rotate(180deg); transition: 0.3s">
  <metadata
     id="metadata889">
    <rdf:RDF>
      <cc:Work
         rdf:about="">
        <dc:format>image/svg+xml</dc:format>
        <dc:type
           rdf:resource="http://purl.org/dc/dcmitype/StillImage" />
        <dc:title></dc:title>
      </cc:Work>
    </rdf:RDF>
  </metadata>
  <sodipodi:namedview
     pagecolor="#ffffff"
     bordercolor="#666666"
     borderopacity="1"
     objecttolerance="10"
     gridtolerance="10"
     guidetolerance="10"
     inkscape:pageopacity="0"
     inkscape:pageshadow="2"
     inkscape:window-width="1600"
     inkscape:window-height="837"
     id="namedview887"
     showgrid="false"
     inkscape:zoom="0.18489583"
     inkscape:cx="2455.5066"
     inkscape:cy="1013.3639"
     inkscape:window-x="-8"
     inkscape:window-y="-8"
     inkscape:window-maximized="1"
     inkscape:current-layer="wave"
     inkscape:document-rotation="0" />
  <defs
     id="defs882">
    <linearGradient
       id="sw-gradient-0"
       x1="0"
       x2="0"
       y1="1"
       y2="0">
      <stop
         stop-color="rgba(0, 139, 139, 1)"
         offset="0%"
         id="stop877" />
      <stop
         stop-color="rgba(0, 139, 139, 1)"
         offset="100%"
         id="stop879" />
    </linearGradient>
  </defs>
  <path
     style="transform:translate(0, 0px); opacity:1"
     fill="url(#sw-gradient-0)"
     d="M0,125L26.7,137.5C53.3,150,107,175,160,170.8C213.3,167,267,133,320,133.3C373.3,133,427,167,480,183.3C533.3,200,587,200,640,187.5C693.3,175,747,150,800,154.2C853.3,158,907,192,960,204.2C1013.3,217,1067,208,1120,183.3C1173.3,158,1227,117,1280,120.8C1333.3,125,1387,175,1440,191.7C1493.3,208,1547,192,1600,166.7C1653.3,142,1707,108,1760,95.8C1813.3,83,1867,92,1920,108.3C1973.3,125,2027,150,2080,137.5C2133.3,125,2187,75,2240,45.8C2293.3,17,2347,8,2400,8.3C2453.3,8,2507,17,2560,54.2C2613.3,92,2667,158,2720,158.3C2773.3,158,2827,92,2880,58.3C2933.3,25,2987,25,3040,41.7C3093.3,58,3147,92,3200,125C3253.3,158,3307,192,3360,208.3C3413.3,225,3467,225,3520,212.5C3573.3,200,3627,175,3680,162.5C3733.3,150,3787,150,3813,150L3840,150L3840,250L3813.3,250C3786.7,250,3733,250,3680,250C3626.7,250,3573,250,3520,250C3466.7,250,3413,250,3360,250C3306.7,250,3253,250,3200,250C3146.7,250,3093,250,3040,250C2986.7,250,2933,250,2880,250C2826.7,250,2773,250,2720,250C2666.7,250,2613,250,2560,250C2506.7,250,2453,250,2400,250C2346.7,250,2293,250,2240,250C2186.7,250,2133,250,2080,250C2026.7,250,1973,250,1920,250C1866.7,250,1813,250,1760,250C1706.7,250,1653,250,1600,250C1546.7,250,1493,250,1440,250C1386.7,250,1333,250,1280,250C1226.7,250,1173,250,1120,250C1066.7,250,1013,250,960,250C906.7,250,853,250,800,250C746.7,250,693,250,640,250C586.7,250,533,250,480,250C426.7,250,373,250,320,250C266.7,250,213,250,160,250C106.7,250,53,250,27,250L0,250Z"
     id="path884" />
</svg>
